<?xml version="1.0" encoding="UTF-8"?>
<svg width="24" height="24" viewBox="0 0 24 24" fill="none" xmlns="http://www.w3.org/2000/svg">
  <path d="M14.94 5.19A4.379 4.379 0 0 0 16 2.03a4.723 4.723 0 0 0-3.03 1.58 4.307 4.307 0 0 0-1.08 3.07 3.7 3.7 0 0 0 3.03-1.49Z" fill="currentColor"/>
  <path d="M20.1 17.96c-.92 1.63-1.35 2.36-2.53 2.36-1.09 0-1.43-.69-2.97-.69-1.53 0-1.9.67-3 .67-1.17 0-1.68-.83-2.53-2.34-1.65-2.97-1.85-6.42.12-8.65.98-1.12 2.32-1.77 3.67-1.77 1.16 0 2.11.69 2.83.69.68 0 1.98-.72 3.36-.61.57.02 2.18.23 3.21 1.76-2.83 1.83-2.38 6.08.84 8.58Z" fill="currentColor"/>
</svg> 